# xmcd
#
# Track frame offsets:
#	150
#	17664
#	36009
#	49412
#	63938
#	80160
#	95686
#	113702
#	133854
#	150850
#	164170
#	193306
#
# Disc length: 3370 seconds
#
# Revision: 0
# Processed by: cddbd v1.5.2PL0 Copyright (c) Steve Scherf et al.
# Submitted via: EasyCDDAExtractor 10.0.3.1
#
DISCID=a50d280c
DTITLE=ANDRZEJ PIASECZNY
DYEAR=2003
DGENRE=Pop
TTITLE0=Chociaż Ty
TTITLE1=Teraz Płacz
TTITLE2=Szczęście Jest Blisko
TTITLE3=Zawsze Pod Wiatr
TTITLE4=Wszystko Trzeba Przeżyć
TTITLE5=Wyjadę Stąd
TTITLE6=Gdy Kobieta Mówi Ciałem
TTITLE7=Jedna Na Milion
TTITLE8=Kocham Dwie
TTITLE9=Wczoraj Do Dziś
TTITLE10=Pozostawiasz Ślad
TTITLE11=XX
EXTD=
EXTT0=
EXTT1=
EXTT2=
EXTT3=
EXTT4=
EXTT5=
EXTT6=
EXTT7=
EXTT8=
EXTT9=
EXTT10=
EXTT11=
PLAYORDER=
